PathFileType	4	(X/Y/Z)	s01c0301.trc
DataRate	CameraRate	NumFrames	NumMarkers	Units	OrigDataRate	OrigDataStartFrame	OrigNumFrames
200	200	4	48	mm	200	1250	2000
Frame#	Time	racr			lacr			c7			jug			rlel			rdr			llel			ldr			s2			lic			ric			lasi			rasi			rpsi			lpsi			rgt			lgt			rth1			rth2			rth3			rth4			rlfc			rsh1			rsh2			rsh3			rsh4			rlmal			rmmal			rcal			rtoe			rmt5			lth1			lth2			lth4			lth3			llfc			lsh1			lsh2			lsh3			lsh4			llmal			lmmal			lcal			ltoe			lmt5			SBIKE			LBIKE			RBIKE			
		X1	Y1	Z1	X2	Y2	Z2	X3	Y3	Z3	X4	Y4	Z4	X5	Y5	Z5	X6	Y6	Z6	X7	Y7	Z7	X8	Y8	Z8	X9	Y9	Z9	X10	Y10	Z10	X11	Y11	Z11	X12	Y12	Z12	X13	Y13	Z13	X14	Y14	Z14	X15	Y15	Z15	X16	Y16	Z16	X17	Y17	Z17	X18	Y18	Z18	X19	Y19	Z19	X20	Y20	Z20	X21	Y21	Z21	X22	Y22	Z22	X23	Y23	Z23	X24	Y24	Z24	X25	Y25	Z25	X26	Y26	Z26	X27	Y27	Z27	X28	Y28	Z28	X29	Y29	Z29	X30	Y30	Z30	X31	Y31	Z31	X32	Y32	Z32	X33	Y33	Z33	X34	Y34	Z34	X35	Y35	Z35	X36	Y36	Z36	X37	Y37	Z37	X38	Y38	Z38	X39	Y39	Z39	X40	Y40	Z40	X41	Y41	Z41	X42	Y42	Z42	X43	Y43	Z43	X44	Y44	Z44	X45	Y45	Z45	X46	Y46	Z46	X47	Y47	Z47	X48	Y48	Z48	
1250	6.2500	715.724915	1370.732910	-95.657089	758.075439	1308.665894	-422.205963	721.194336	1411.778564	-260.192413	695.880981	1247.327515	-249.817719	616.376953	1099.100708	9.014198	730.991211	873.583618	-59.866451	656.528992	1066.596191	-560.838867	730.822876	856.664917	-444.844757	179.897018	1228.920654	-295.999115	355.238770	1234.376953	-461.628052	325.385864	1211.800293	-130.921875	352.401642	1177.566528	-437.298157	355.734100	1168.254639	-163.257614	209.504547	1263.690186	-241.384918	211.179581	1274.443115	-347.061188	271.364197	1098.611694	-115.630119	293.355042	1100.262939	-487.276947	336.973572	983.221558	-98.723091	383.691010	914.744751	-103.014420	429.252594	837.073242	-113.651031	430.517303	943.236938	-115.258110	465.152802	729.869507	-132.354843	414.148773	623.330322	-91.369667	388.472473	542.412415	-91.375984	353.455383	460.888062	-96.408134	431.698517	526.263855	-130.701508	290.298035	350.081635	-108.163986	342.790894	353.922577	-182.749481	244.485123	330.726288	-160.363419	497.134491	237.443176	-127.985153	385.026947	239.046036	-64.448456	346.734192	985.310608	-496.477203	407.937958	920.779541	-491.847839	445.996368	956.473206	-479.548981	457.508301	852.876465	-476.508453	488.145233	745.085449	-450.945435	378.805756	706.142700	-478.701630	306.464996	660.169617	-465.671783	231.685852	620.275391	-448.800598	338.228027	618.559753	-433.120880	126.197403	562.167114	-421.216461	152.519333	547.003113	-343.252655	75.778412	582.378601	-375.775909	200.522125	333.716919	-370.331116	129.542694	410.782074	-440.701294	-223.132538	893.208313	-249.829315	-12.131315	84.556183	-453.896118	-20.251978	80.857666	-53.805363	
1251	6.2550	716.987854	1370.212402	-95.719933	758.137817	1308.901611	-422.818390	722.171631	1411.289673	-260.112915	696.986206	1246.702393	-249.981339	617.709290	1098.470581	8.861065	731.483337	872.428406	-60.021152	656.480347	1066.476807	-560.697144	732.270874	857.308472	-444.788483	180.510239	1227.295532	-293.491425	354.947662	1234.636719	-459.833405	326.916565	1210.050415	-129.038025	352.448425	1177.330078	-435.640961	356.884277	1166.123901	-161.345276	210.546295	1261.747437	-238.902115	211.472397	1273.201050	-344.337219	271.524750	1096.078735	-114.525169	294.164917	1100.385620	-486.090668	334.662598	979.970032	-97.211800	379.716522	910.453369	-101.452522	423.539307	831.643433	-112.160225	427.407440	937.844727	-113.583824	458.027588	723.538818	-130.982452	408.361816	616.168152	-90.095718	383.442596	534.965576	-90.343613	349.204742	453.133881	-95.447647	426.149384	519.437561	-130.409821	287.314911	341.856476	-108.450211	338.933441	345.829895	-182.165390	240.505020	325.448853	-158.629593	492.139709	226.363419	-128.093658	380.259430	229.908600	-64.355965	349.703705	986.561523	-496.186279	412.924469	923.772095	-493.043243	450.067871	960.647827	-480.452942	464.508301	857.271362	-478.315796	496.112793	750.442566	-453.125885	385.578186	712.690002	-480.255890	312.712280	667.574646	-466.708527	237.573318	628.441833	-449.172424	344.419952	625.578430	-434.959778	131.536469	571.231812	-421.377441	158.470871	556.046875	-343.167114	81.459274	591.515442	-375.608765	206.364059	342.912048	-370.180817	135.359024	419.971863	-440.565063	-223.074692	893.207458	-249.695206	-12.114231	84.569138	-453.867401	-20.254374	80.818565	-53.790283	
1252	6.2600	718.228577	1369.643677	-96.044937	758.106506	1309.252075	-423.488831	723.174072	1410.830322	-260.042908	698.024170	1246.445312	-250.065475	619.269653	1097.910400	8.630876	731.911377	871.381836	-60.097496	656.423706	1066.361084	-560.406128	731.811279	857.103577	-444.036530	181.080627	1225.745483	-290.821472	354.635376	1234.962646	-457.908691	328.452240	1208.485840	-127.146027	352.554779	1177.065796	-433.905914	357.839142	1164.285645	-158.678513	211.601669	1259.943970	-236.310532	211.732803	1272.035767	-341.537109	271.523865	1093.793335	-113.340904	294.936707	1100.705811	-485.153687	332.165222	977.000793	-95.675896	375.598206	906.348328	-99.764198	417.577026	826.500366	-110.400505	423.941498	932.614807	-111.880882	450.839355	717.128601	-129.699524	401.880402	609.410950	-88.557220	377.788055	527.906372	-89.094048	344.431885	445.660492	-94.296608	420.427856	513.094788	-129.353119	283.396271	334.330048	-108.103889	334.723480	338.415436	-181.209198	236.857010	319.482727	-157.895569	486.599884	215.396378	-128.417221	375.042450	220.891022	-64.098389	352.690155	987.945679	-495.547394	417.934357	927.305298	-494.296539	454.176300	965.047241	-481.346680	471.592163	862.176208	-480.226044	503.816498	756.100830	-455.372131	392.469940	719.466370	-481.687592	319.398529	675.202637	-467.693817	242.344925	637.276794	-449.510376	350.851349	632.573792	-436.407227	137.896500	579.935852	-421.264923	165.475250	565.125488	-342.746033	87.836266	600.258484	-375.335785	212.738739	351.731354	-369.973877	141.635529	428.826935	-440.297119	-222.981094	893.232056	-249.564194	-12.088326	84.581329	-453.839813	-20.218037	80.813034	-53.751339	
1253	6.2650	719.550903	1368.977295	-96.442490	758.041321	1309.853271	-424.336151	724.021545	1410.555908	-260.167297	699.076477	1246.271729	-250.372208	621.031067	1097.472290	8.314168	732.410217	870.268677	-60.245781	656.305664	1066.256836	-560.010620	731.413879	856.986877	-443.440918	181.735428	1224.357544	-288.105469	354.251709	1235.112183	-455.953918	330.140869	1206.999146	-125.289993	352.654297	1176.789429	-432.093262	359.156708	1162.179077	-157.091904	212.809219	1258.289795	-233.666779	212.016541	1270.931152	-338.683563	271.743530	1091.653564	-112.048676	295.549835	1100.878662	-483.810425	329.632294	974.207397	-93.871536	371.328247	902.509094	-97.943855	411.318512	821.728882	-108.476517	420.276520	927.595032	-109.962212	442.906006	711.161499	-127.842262	394.432434	603.216248	-86.545090	371.490082	521.399048	-87.325272	339.147491	438.733398	-92.711708	414.312592	507.103241	-127.715698	279.288177	327.334381	-107.338341	330.184082	331.658447	-179.924438	232.950409	314.127472	-156.715942	480.464935	205.097107	-127.871223	369.225494	212.127960	-64.180214	355.710846	990.023376	-495.333710	422.732086	931.305115	-495.507263	458.058746	969.847534	-481.897400	478.248230	867.514099	-481.971191	511.196106	761.995667	-457.556549	399.502350	726.398438	-483.175934	326.193573	682.745117	-468.651245	251.139267	644.268005	-448.608643	357.625061	639.605103	-437.823944	145.447357	588.221497	-420.676025	172.176758	573.257446	-342.734558	94.786148	608.685486	-375.020386	219.718979	360.194794	-369.792572	148.674576	437.335175	-440.086060	-222.892151	893.241272	-249.434738	-12.057758	84.613373	-453.803925	-20.184244	80.806038	-53.723869	
